<?xml version="1.0" standalone="no"?>
<!DOCTYPE svg PUBLIC "-//W3C//DTD SVG 1.0//EN" "http://www.w3.org/TR/2001/REC-SVG-20010904/DTD/svg10.dtd">
<svg xmlns="http://www.w3.org/2000/svg" xmlns:xlink="http://www.w3.org/1999/xlink" id="body_1" width="147" height="110">

<g transform="matrix(0.34571967 0 0 0.34571967 -0 1.1005782)">
    <path d="M194.86 248.94C 194.86 220.40897 218.00241 197.28 246.55 197.28C 275.0976 197.28 298.24 220.40897 298.24 248.94C 298.24 277.47104 275.0976 300.6 246.55 300.6C 218.00241 300.6 194.86 277.47104 194.86 248.94" stroke="none" fill="#5AC8F5" fill-rule="nonzero" />
    <path d="M63.76 58.32L150.11 58.32L150.11 144.67L63.76 144.67z" stroke="none" fill="#5AC8F5" fill-rule="nonzero" />
    <path d="M361.44 107.28L265.34 107.28L313.39 11.18L361.44 107.28L361.44 107.28" stroke="none" fill="#5AC8F5" fill-rule="nonzero" />
    <path d="M365.91 105L317.86 9C 317.01218 7.3084245 315.28214 6.2403326 313.38998 6.2403326C 311.49783 6.2403326 309.7678 7.3084245 308.91998 9L308.91998 9L293.84 39.11C 242.94005 -1.9247589 168.83209 4.0319977 125.14 52.670002C 124.968025 52.87518 124.81096 53.092396 124.67 53.320004L124.67 53.320004L63.76 53.320004C 60.998573 53.320004 58.76 55.55858 58.76 58.320004L58.76 58.320004L58.76 144.68001C 58.76 147.44144 60.998573 149.68001 63.76 149.68001L63.76 149.68001L94.759995 149.68001L95.02 153.11L95.02 153.48C 102.735245 203.72253 140.54086 244.05489 190.18 255C 192.57782 277.14517 207.72205 295.83392 228.88942 302.7694C 250.05681 309.7049 273.3241 303.60168 288.36188 287.16925C 303.39966 270.73685 307.42072 247.02089 298.63998 226.55C 330.67755 197.86978 345.4311 154.553 337.56 112.28001L337.56 112.28001L361.44 112.28001C 363.1736 112.27994 364.7835 111.38185 365.69427 109.906715C 366.60504 108.43158 366.68665 106.589935 365.91 105.04001L365.91 105.04001L365.91 105zM313.39 22.36L353.39 102.28L273.43 102.28zM68.76001 63.36L145.11002 63.36L145.11002 139.72L68.76 139.72zM246.55 295.63C 221.72266 295.6018 201.24765 276.17184 199.92 251.38C 199.97522 250.94508 199.97522 250.50493 199.92 250.07C 199.92 249.69 199.92 249.31001 199.92 248.94C 199.91595 230.05072 211.29149 213.01912 228.74176 205.7877C 246.19203 198.55629 266.28018 202.54927 279.63834 215.90459C 292.99652 229.2599 296.9938 249.3472 289.7661 266.799C 282.53845 284.25082 265.50928 295.63 246.62 295.63zM329.64 134.87001C 329.6833 166.20818 316.667 196.14716 293.72003 217.49002C 280.30844 197.32574 255.56737 187.90976 232.14291 194.05495C 208.71846 200.20013 191.78586 220.54881 190 244.7C 145.55405 233.86478 112.00837 197.3276 105 152.12L105 152.12L104.82 149.68L150.16 149.68C 152.92143 149.68 155.16 147.44142 155.16 144.68L155.16 144.68L155.16 58.32C 155.16 55.558575 152.92143 53.32 150.16 53.32L150.16 53.32L138.43 53.32C 180.06174 13.411255 245.06645 11.256203 289.25 48.32L289.25 48.32L260.87 105C 260.09332 106.54993 260.17493 108.39157 261.0857 109.86671C 261.99646 111.34184 263.60635 112.23993 265.34 112.24L265.34 112.24L327.34 112.24C 328.86206 119.687325 329.6326 127.26871 329.64 134.87z" stroke="none" fill="#393F45" fill-rule="nonzero" />
</g>
</svg>